<?xml version="1.0" encoding="utf-8"?>
<!-- Generator: Adobe Illustrator 27.7.0, SVG Export Plug-In . SVG Version: 6.00 Build 0)  -->
<svg version="1.1" id="Layer_1" xmlns="http://www.w3.org/2000/svg" xmlns:xlink="http://www.w3.org/1999/xlink" x="0px" y="0px"
	 viewBox="0 0 100 100" style="enable-background:new 0 0 100 100;" xml:space="preserve">
<style type="text/css">
	.st0{fill:#0B4619;}
</style>
<g>
	<path class="st0" d="M49.63,9.41c22.97,0.32,40.04,18.2,40.93,39.18c1.05,24.72-19.13,44.21-43.12,43.13
		c-21.04-0.95-37.4-17.64-39.01-37.97c-0.95-11.99,2.91-22.37,10.9-31.23C25.65,15.5,36.41,9.28,49.63,9.41z M84.41,50.29
		c0.21-19.5-15.26-33.79-33.15-34.67c-22.24-1.11-35.93,16.1-36.87,32.64c-0.63,11.16,3.21,20.59,11.45,28.22
		c6.84,6.33,14.95,9.3,24.21,9.17C68.23,85.38,84.88,70.43,84.41,50.29z"/>
	<path class="st0" d="M44.45,57.76c0.36-0.5,0.58-0.92,0.89-1.24c5.67-5.69,11.35-11.38,17.04-17.05c1.52-1.52,3.53-1.56,4.82-0.13
		c0.92,1.02,0.94,2.78-0.04,3.76c-6.92,6.95-13.86,13.89-20.81,20.8c-1.35,1.35-3.04,1.29-4.41-0.07c-3.33-3.31-6.63-6.66-9.98-9.95
		c-1.56-1.53-1.2-3.33-0.29-4.47c0.96-1.21,2.78-1.31,4.19-0.03c2.56,2.31,4.98,4.77,7.45,7.17C43.61,56.85,43.88,57.16,44.45,57.76
		z"/>
</g>
</svg>
