<?xml version="1.0" encoding="utf-8"?>
<!-- Generator: Adobe Illustrator 27.7.0, SVG Export Plug-In . SVG Version: 6.00 Build 0)  -->
<svg version="1.1" id="Layer_1" xmlns="http://www.w3.org/2000/svg" xmlns:xlink="http://www.w3.org/1999/xlink" x="0px" y="0px"
	 viewBox="0 0 100 100" style="enable-background:new 0 0 100 100;" xml:space="preserve">
<style type="text/css">
	.st0{fill:#0A4618;}
	.st1{fill:#0A4717;}
</style>
<g>
	<path class="st0" d="M32.77,68.71c0.66,0.63,1.32,1.25,1.97,1.89c0.6,0.58,1.01,0.58,1.56-0.18c0.99-1.34,2.38-2.33,3.54-3.52
		c1.62-1.66,3.22-3.35,4.88-4.97c1.72-1.68,3.45-3.34,5.12-5.08c3.29-3.44,6.68-6.78,10.06-10.13c2.75-2.72,5.58-5.37,8.32-8.11
		c2.17-2.17,4.17-4.51,6.42-6.59c4.06-3.76,7.68-7.95,11.69-11.76c1.36-1.29,2.95-1.57,4.63-1.1c1.78,0.5,2.58,2.04,2.7,3.7
		c0.1,1.45-0.83,2.65-1.86,3.68C82.54,35.82,73.27,45.09,64,54.36c-6.56,6.56-13.07,13.19-19.72,19.66
		c-2.31,2.25-4.49,4.67-7.07,6.62c-1.36,1.03-3.1,0.81-4.32-0.41C24.35,71.7,15.81,63.17,7.28,54.62c-1.34-1.34-1.41-3.61-0.24-5.02
		c1.39-1.66,3.79-2.11,5.48-0.96c1.55,1.05,2.76,2.48,4.02,3.84c-0.25,0.7-0.9,0.38-1.38,0.5c0.11,0.63,0.46,1.11,0.74,1.61
		c0.34,0.64,0.58,1.27,0.31,2.02c-0.24,0.66,0.04,1.21,0.46,1.72c2.42,2.93,5.19,5.49,8.05,7.98c0.88,0.77,2.09,0.76,3.13,1.14
		c0.87,0.32,1.74,0.62,2.4,1.28c0.65,0.65,1.21,1.02,1.91,0.11C32.29,68.68,32.56,68.74,32.77,68.71z"/>
	<path class="st1" d="M32.77,68.71c-1.04,1.49-1.9,1.19-3.05-0.03c-0.9-0.95-2.36-1.12-3.62-1.4c-0.65-0.14-1.2-0.38-1.64-0.77
		c-2.87-2.57-5.72-5.17-8.18-8.15c-0.3-0.36-0.66-0.83-0.47-1.23c0.65-1.37-0.14-2.35-0.74-3.41c-0.22-0.38-0.32-0.83-0.54-1.42
		c0.75,0.22,1.38,0.73,2.03,0.18c0.08,0.08,0.15,0.15,0.23,0.23c0.14,0.37,0.4,0.63,0.77,0.77c3.41,3.41,6.82,6.82,10.23,10.22
		c0.16,0.36,0.41,0.61,0.77,0.77c0.08,0.08,0.15,0.15,0.23,0.23c0.14,0.37,0.4,0.63,0.77,0.77c0.08,0.08,0.15,0.15,0.23,0.23
		c0.14,0.37,0.4,0.63,0.77,0.77c0.08,0.08,0.15,0.15,0.23,0.23c0.16,0.36,0.32,0.7,0.77,0.77c0.08,0.08,0.16,0.16,0.23,0.23
		c-0.05,0.56,0.41,0.61,0.76,0.77C32.61,68.56,32.69,68.64,32.77,68.71z"/>
	<path class="st0" d="M32.54,68.48c-0.34-0.01-0.68,0.3-1.01-0.09c-0.32-0.4,0.22-0.43,0.24-0.68
		C32.03,67.97,32.28,68.22,32.54,68.48z"/>
	<path class="st0" d="M31.54,67.48c-1,0.49-0.73-0.3-0.77-0.77C31.03,66.97,31.28,67.22,31.54,67.48z"/>
	<path class="st0" d="M17.55,53.49c-0.58,0.07-0.84-0.18-0.77-0.77C17.03,52.97,17.29,53.23,17.55,53.49z"/>
	<path class="st0" d="M29.54,65.48c-0.59,0.07-0.84-0.18-0.77-0.77C29.03,64.97,29.29,65.22,29.54,65.48z"/>
	<path class="st0" d="M30.54,66.48c-0.59,0.07-0.84-0.18-0.77-0.77C30.03,65.97,30.29,66.22,30.54,66.48z"/>
	<path class="st0" d="M28.54,64.48c-0.51,0-0.77-0.26-0.77-0.77C28.03,63.97,28.29,64.22,28.54,64.48z"/>
</g>
</svg>
