<?xml version="1.0" encoding="utf-8"?>
<!-- Generator: Adobe Illustrator 27.7.0, SVG Export Plug-In . SVG Version: 6.00 Build 0)  -->
<svg version="1.1" id="Layer_1" xmlns="http://www.w3.org/2000/svg" xmlns:xlink="http://www.w3.org/1999/xlink" x="0px" y="0px"
	 viewBox="0 0 100 100" style="enable-background:new 0 0 100 100;" xml:space="preserve">
<style type="text/css">
	.st0{fill:#0A4618;}
</style>
<g>
	<path class="st0" d="M50.48,26.73c9.41,0,18.81-0.02,28.22,0.03c1.13,0.01,2.33,0.28,3.37,0.73c1.65,0.72,2.09,2.46,1.05,3.9
		c-2.35,3.24-4.74,6.44-7.16,9.63c-4.2,5.55-8.42,11.08-12.65,16.61c-3.27,4.28-6.56,8.54-9.83,12.81
		c-1.85,2.42-4.22,1.97-5.77-0.23c-2.86-4.07-6.02-7.93-9.05-11.88c-2.98-3.89-5.95-7.78-8.92-11.68
		c-3.36-4.41-6.71-8.81-10.05-13.24c-0.6-0.8-1.15-1.66-1.64-2.53c-0.69-1.24-0.05-3.29,1.61-3.67c0.89-0.2,1.8-0.46,2.7-0.46
		C31.75,26.72,41.12,26.74,50.48,26.73z"/>
</g>
</svg>
