<?xml version="1.0" encoding="utf-8"?>
<!-- Generator: Adobe Illustrator 27.7.0, SVG Export Plug-In . SVG Version: 6.00 Build 0)  -->
<svg version="1.1" id="Layer_1" xmlns="http://www.w3.org/2000/svg" xmlns:xlink="http://www.w3.org/1999/xlink" x="0px" y="0px"
	 viewBox="0 0 100 100" style="enable-background:new 0 0 100 100;" xml:space="preserve">
<style type="text/css">
	.st0{fill:#F6FBF9;}
	.st1{fill:#79AC8C;}
	.st2{fill:#99B2B0;}
	.st3{fill:#789997;}
	.st4{fill:#91B99A;}
	.st5{fill:#D9F4D5;}
	.st6{fill:#0A4619;}
	.st7{fill:#0A4618;}
	.st8{fill:#275D34;}
	.st9{fill:#4C7557;}
	.st10{fill:#EEF7F2;}
	.st11{fill:#C1C6C4;}
	.st12{fill:#D6DBD8;}
	.st13{fill:#D0F9ED;}
	.st14{fill:#7AAF82;}
	.st15{fill:#3E8454;}
	.st16{fill:#ADDEC8;}
	.st17{fill:#8FC39F;}
	.st18{fill:#5E9B76;}
	.st19{fill:#4A8752;}
</style>
<g>
	<path class="st0" d="M6.43,52.38c0.32-0.2,0.67-0.24,1.04-0.22c0.24,0.71-0.17,1.35-0.23,2.03c-0.05,0.1-0.12,0.18-0.21,0.24
		c-0.1,0.04-0.21,0.06-0.32,0.05c-0.11-0.03-0.2-0.08-0.28-0.16C6.43,53.68,6.43,53.03,6.43,52.38z"/>
	<path class="st1" d="M6.43,56.27c0-0.29,0-0.58,0-0.87c0.1-0.04,0.19-0.03,0.27,0.04c0.1,0.12,0.14,0.27,0.14,0.42
		c0,0.16-0.04,0.3-0.14,0.43C6.61,56.36,6.52,56.35,6.43,56.27z"/>
	<path class="st2" d="M6.43,54.33c0.07-0.01,0.13-0.01,0.2,0.01c0.13,0.09,0.17,0.21,0.17,0.36c-0.02,0.09-0.05,0.18-0.11,0.26
		c-0.08,0.06-0.17,0.07-0.25,0.02C6.43,54.76,6.43,54.54,6.43,54.33z"/>
	<path class="st3" d="M6.43,54.98c0.07,0,0.14,0,0.22,0c0,0,0.08,0.07,0.08,0.07c0.04,0.06,0.05,0.13,0.04,0.2
		c0,0-0.04,0.1-0.04,0.1c0,0-0.08,0.07-0.08,0.07c-0.07,0-0.14,0-0.21,0C6.43,55.27,6.43,55.12,6.43,54.98z"/>
	<path class="st4" d="M6.43,56.27c0.06,0.01,0.12,0.01,0.18,0.01c0.05,0.04,0.08,0.09,0.08,0.15c0,0.06-0.01,0.09-0.02,0.09
		c-0.09,0.06-0.17,0.05-0.24-0.03C6.43,56.42,6.43,56.35,6.43,56.27z"/>
	<path class="st5" d="M6.43,56.49c0.06,0.01,0.12,0.02,0.18,0.01c0.05,0.05,0.07,0.09,0.05,0.14c-0.02,0.05-0.04,0.07-0.06,0.07
		l-0.09,0l-0.09-0.01C6.43,56.64,6.43,56.56,6.43,56.49z"/>
	<path class="st6" d="M50.21,36.98c1.66,0.36,3.37,0.5,4.97,1.11c6.01,2.31,9.87,6.5,11.21,12.89c0.19,0.89,0.31,1.79,0.47,2.68
		c0.11,0.37,0.11,0.73,0,1.1c-0.58,8.48-6.03,14.77-14.23,16.82c-0.75,0.19-1.58,0.45-2.4,0.23c-0.58-0.12-1.16-0.12-1.74,0
		c-3.38-0.23-6.43-1.41-9.13-3.42c-3.43-2.56-5.7-5.94-6.7-10.14c-0.26-1.08-0.43-2.16-0.37-3.28c-0.11-0.36-0.11-0.73,0-1.09
		c0.01-4.03,1.42-7.51,4-10.59c2.22-2.65,5-4.39,8.25-5.49c1.44-0.48,2.95-0.5,4.4-0.83C49.35,36.87,49.78,36.88,50.21,36.98z"/>
	<path class="st7" d="M6.61,56.72c0-0.07,0-0.14,0-0.21c0-0.07,0-0.15,0-0.22c0.02-0.14,0.04-0.28,0.06-0.42
		c0.1-0.14,0.09-0.29,0.09-0.45c0-0.08,0-0.16,0-0.24c0-0.08,0-0.16,0-0.24c0-0.04,0.01-0.08,0.01-0.12
		c0.01-0.04,0.02-0.07,0.04-0.11c0.03-0.07,0.07-0.14,0.11-0.21c0.05-0.06,0.09-0.13,0.14-0.19c-0.03-0.75,0.15-1.45,0.42-2.14
		c1.76-5.09,4.44-9.62,7.96-13.71c4.42-5.14,9.71-9.05,15.86-11.82c3.92-1.77,8-2.96,12.29-3.5c1.64-0.21,3.29-0.23,4.91-0.57
		c0.64,0.21,1.33-0.08,1.97,0.17c6.31,0.15,12.29,1.61,18.02,4.3c5.71,2.68,10.64,6.39,14.81,11.08c3.48,3.93,6.16,8.38,7.94,13.37
		c0.41,1.15,0.77,2.31,1.13,3.47c0.43,1.39-0.24,2.97-1.47,3.46c-1.16,0.47-2.69-0.17-3.26-1.52c-0.66-1.57-1.15-3.21-1.77-4.79
		c-1.27-3.25-3.01-6.24-5.24-8.92c-2.71-3.24-5.69-6.2-9.24-8.53c-4.24-2.79-8.89-4.54-13.83-5.65c-3.75-0.85-7.55-1.13-11.33-0.79
		c-7.64,0.69-14.68,3.17-20.77,8.02c-4.28,3.41-7.91,7.37-10.61,12.17c-1.39,2.48-2.37,5.11-3.2,7.8c-0.33,1.06-0.83,1.97-1.95,2.21
		C8.23,58.73,7.24,58,6.61,56.72z"/>
	<path class="st8" d="M50.46,22.72c-0.65-0.06-1.34,0.2-1.97-0.17C49.15,22.59,49.83,22.31,50.46,22.72z"/>
	<path class="st9" d="M48.48,71.82c0.58-0.29,1.16-0.27,1.74,0C49.64,71.82,49.06,71.82,48.48,71.82z"/>
	<path class="st10" d="M50.21,36.98c-0.43,0-0.86,0-1.29,0C49.35,36.7,49.78,36.71,50.21,36.98z"/>
	<path class="st11" d="M66.86,54.77c0-0.37,0-0.73,0-1.1C67.13,54.04,67.13,54.4,66.86,54.77z"/>
	<path class="st12" d="M32.28,53.89c0,0.36,0,0.73,0,1.09C32.01,54.62,32.01,54.26,32.28,53.89z"/>
	<path class="st13" d="M6.67,54.74c-0.01-0.13-0.02-0.27-0.04-0.4c0.09,0,0.17,0,0.26,0c0.05,0.06,0.08,0.13,0.08,0.21
		c-0.01,0.08-0.04,0.15-0.08,0.22l-0.04-0.02C6.78,54.86,6.72,54.85,6.67,54.74z"/>
	<path class="st14" d="M6.9,54.56c0-0.07-0.01-0.15-0.01-0.22C6.94,54.33,7,54.32,7.05,54.3c0,0.07,0,0.15,0,0.22l-0.06,0.08
		L6.9,54.56z"/>
	<path class="st15" d="M6.85,55.4c0.02,0.18-0.01,0.35-0.18,0.46c-0.01-0.15-0.02-0.3-0.02-0.45c0,0,0.01,0.01,0.01,0.01
		C6.71,55.31,6.78,55.31,6.85,55.4z"/>
	<path class="st16" d="M6.67,54.74c0.06,0.01,0.12,0.01,0.18,0.01c-0.01,0.07-0.01,0.14-0.02,0.22c-0.05,0.11-0.11,0.11-0.18,0.01
		c0,0,0,0,0,0C6.66,54.9,6.66,54.82,6.67,54.74z"/>
	<path class="st17" d="M6.65,54.98c0.06,0,0.12-0.01,0.18-0.01c0,0.07,0.01,0.14,0.01,0.21c-0.06,0.09-0.12,0.09-0.19,0.01
		C6.65,55.12,6.65,55.05,6.65,54.98z"/>
	<path class="st18" d="M6.65,55.19c0.06,0,0.13,0,0.19-0.01c0,0.07,0.01,0.15,0.01,0.22c-0.07,0.01-0.13,0.01-0.19,0.01
		C6.65,55.34,6.65,55.27,6.65,55.19z"/>
	<path class="st19" d="M6.9,54.56c0.05-0.01,0.1-0.02,0.16-0.03C7,54.61,6.94,54.69,6.89,54.77C6.89,54.7,6.89,54.63,6.9,54.56z"/>
</g>
</svg>
