<?xml version="1.0" encoding="utf-8"?>
<!-- Generator: Adobe Illustrator 27.7.0, SVG Export Plug-In . SVG Version: 6.00 Build 0)  -->
<svg version="1.1" id="Layer_1" xmlns="http://www.w3.org/2000/svg" xmlns:xlink="http://www.w3.org/1999/xlink" x="0px" y="0px"
	 viewBox="0 0 100 100" style="enable-background:new 0 0 100 100;" xml:space="preserve">
<style type="text/css">
	.st0{fill:#0B4619;}
	.st1{fill:#A1B7B2;}
	.st2{fill:#0C461A;}
</style>
<g>
	<path class="st0" d="M96.41,57.37c-0.29,0.17-0.64,0.28-0.85,0.52c-1.5,1.72-3.6,1.51-4.55-0.59c-0.65-1.44-1.02-3.02-1.59-4.5
		c-1.42-3.65-3.39-6.97-5.83-10.04c-2.73-3.44-5.89-6.41-9.54-8.78c-3.12-2.03-1.95-2.27-4.68,0.4c-2.21,2.16-4.39,4.36-6.39,6.35
		c1.46,2.2,3.02,4.15,4.12,6.34c1.5,2.98,2,6.2,1.55,9.6c-0.45,3.35-1.56,6.34-3.61,9.01c-2.78,3.63-6.39,6.01-10.8,7.08
		c-5.57,1.35-10.53-0.17-15.02-3.54c-0.63-0.47-1.24-1-1.79-1.57c-0.5-0.52-0.83-0.47-1.31,0.03c-2.2,2.31-4.4,4.62-6.66,6.87
		c-4.2,4.18-8.44,8.33-12.66,12.49c-1.05,1.03-2.97,0.92-3.59,0.23c-0.97-1.09-1.75-2.08-0.45-3.82c0.29-0.39,0.6-0.78,0.95-1.13
		c23.17-23.22,46.34-46.44,69.51-69.67c0.88-0.88,1.82-1.64,3.18-1.31c2.38,0.58,2.98,2.95,1.2,4.75
		c-3.64,3.68-7.3,7.33-10.96,10.99c-0.32,0.32-0.63,0.65-0.99,1.03c1.53,1.1,3.04,2.11,4.46,3.23c2.56,2.02,4.9,4.24,6.98,6.79
		c2.32,2.83,4.37,5.82,5.93,9.11c1.09,2.3,1.81,4.78,2.7,7.18c0.08,0.21,0.17,0.41,0.26,0.61c0.14,0.24,0.28,0.47,0.43,0.71
		C96.41,56.29,96.41,56.83,96.41,57.37z"/>
	<path class="st1" d="M96.41,55.76c-0.14-0.24-0.28-0.47-0.43-0.71c0.14,0.01,0.28,0.01,0.43,0.02
		C96.41,55.3,96.41,55.53,96.41,55.76z"/>
	<path class="st0" d="M64,23.08c-1.06,1.25-2.21,2.44-3.15,3.77c-0.91,1.3-2.05,0.75-3.07,0.55c-4.09-0.81-8.18-0.86-12.31-0.43
		c-5.47,0.57-10.59,2.29-15.44,4.84c-4.73,2.49-8.7,5.95-12.03,10.11c-1.77,2.21-3.52,4.51-4.85,7c-1.32,2.47-2.13,5.21-3.12,7.86
		C9.5,58.22,8.63,58.9,7.29,59c-1.01,0.08-2.07-0.63-2.71-2.16c-0.11-0.26-0.14-0.64-0.05-0.9c0.98-2.8,1.81-5.67,3.05-8.36
		c1.99-4.31,4.72-8.16,8.01-11.62c4.23-4.45,9.07-8.01,14.62-10.59c4.09-1.9,8.37-3.36,12.85-3.87c3.57-0.41,7.21-0.65,10.79-0.43
		c3.24,0.2,6.43,1.13,9.64,1.76c0.34,0.07,0.66,0.29,0.98,0.44C64.32,23.21,64.16,23.14,64,23.08z"/>
	<path class="st2" d="M31.91,55.81c-0.16-11.99,9.45-20.33,19.23-19.48C44.86,42.69,38.49,49.14,31.91,55.81z"/>
</g>
</svg>
