<?xml version="1.0" encoding="utf-8"?>
<!-- Generator: Adobe Illustrator 27.7.0, SVG Export Plug-In . SVG Version: 6.00 Build 0)  -->
<svg version="1.1" id="Layer_1" xmlns="http://www.w3.org/2000/svg" xmlns:xlink="http://www.w3.org/1999/xlink" x="0px" y="0px"
	 viewBox="0 0 100 100" style="enable-background:new 0 0 100 100;" xml:space="preserve">
<style type="text/css">
	.st0{fill:#0B4619;}
	.st1{fill:#E0E8E0;}
</style>
<g>
	<path class="st0" d="M16.9,54.04c1.66-10.02-5.66-37.05,8.8-37.37c2.39-0.62,6.94,1.37,8.14-1.12C36.23,5.24,48.92,8.72,56.7,8.21
		c5,0.08,8.45,2.58,9.69,7.6c3.3,3.07,14.57-3.28,16.74,8.93c0.61,18.38,0.22,36.78,0.32,55.17c0.84,7.8-6.1,12.84-13.45,11.64
		C16.81,88.85,15.45,105.04,16.9,54.04z M56.65,20.62c3.89,0.44,5.13-4.74,1.46-5.94c-5.29-0.39-10.73-0.4-16.02-0.02
		c-1.45,0.35-2.57,1.78-2.43,3.03C41.01,23.43,52.07,19.58,56.65,20.62z M23.15,53.99c1.05,5.04-2.77,32.12,2.88,31.16
		c16.39-0.28,32.99,0.6,49.27-0.32c1.58-0.74,1.85-2.16,1.85-3.69c0-17.96,0.01-35.91,0-53.87c-0.01-3.23-1.22-4.45-4.3-4.39
		c-2.69,0.4-6.06-1.06-8.41,0.45c-5.4,6.17-14.83,2.85-22.05,3.54c-8.16-1.39-4.11-5.43-15.46-4.01c-2.42-0.11-3.85,1.14-3.82,3.87
		C23.22,35.83,23.15,44.91,23.15,53.99z"/>
	<path class="st1" d="M56.4,20.61c0.08,0.01,0.17,0.01,0.25,0.02C56.57,20.62,56.48,20.61,56.4,20.61z"/>
	<path class="st0" d="M59.68,37.67c5.88-0.42,10.4,5.61,8.64,11.55c-3.17,6.23-9.54,10.45-14.08,15.71
		c-2.51,2.28-4.75,5.11-7.57,6.96c-4.06,0.11-16.12,6.82-15.04-1.15c1.34-4.16,1.18-9.16,3.87-12.71
		C42.1,52.87,51.81,37.68,59.68,37.67z M38.71,67.52c3.33-0.49,5.94-1.28,8.19-3.9c2.78-4.51,18-14.18,14.86-18.98
		c-4.69-3.88-15.67,12.9-20.26,15.75C39.45,62.34,39.42,64.84,38.71,67.52z"/>
</g>
</svg>
