<?xml version="1.0" encoding="utf-8"?>
<!-- Generator: Adobe Illustrator 27.7.0, SVG Export Plug-In . SVG Version: 6.00 Build 0)  -->
<svg version="1.1" id="Layer_1" xmlns="http://www.w3.org/2000/svg" xmlns:xlink="http://www.w3.org/1999/xlink" x="0px" y="0px"
	 viewBox="0 0 100 100" style="enable-background:new 0 0 100 100;" xml:space="preserve">
<style type="text/css">
	.st0{fill:#0B4619;}
</style>
<g>
	<path class="st0" d="M12.37,49.69c0-8.79-0.1-17.58,0.04-26.37c0.08-5.04,3.69-9.53,8.68-10.84c1.17-0.31,2.45-0.29,3.68-0.29
		c10.67-0.02,21.34-0.06,32,0.02c2.65,0.02,5.39,0.09,7.91,0.79c4.34,1.21,6.93,4.35,7.69,8.83c0.18,1.05,0.26,2.25-0.08,3.21
		c-0.48,1.34-1.78,1.82-3.23,1.62c-1.06-0.14-2.11-1.19-2.41-2.44c-0.11-0.47-0.15-0.96-0.27-1.43c-0.58-2.27-2.2-4.08-4.81-4.1
		c-12.44-0.11-24.88-0.21-37.33-0.24c-3.61-0.01-5.64,2.29-5.63,5.77c0.01,16.87-0.02,33.75-0.03,50.62c0,1.35,0,2.69,0.9,3.87
		c1.03,1.35,2.36,2.17,4.01,2.19c6.54,0.07,13.08,0.05,19.63,0.05c6,0,12,0.04,18-0.04c2.51-0.03,4.45-1.3,5.16-3.51
		c0.2-0.61,0.27-1.27,0.37-1.91c0.3-1.82,1.73-3.08,3.3-2.8c1.61,0.28,2.92,1.59,2.68,3.65c-0.34,2.85-1.32,5.45-3.49,7.44
		c-2.25,2.06-4.82,3.43-7.99,3.42c-12.75-0.02-25.51,0.1-38.25-0.08c-3.52-0.05-6.44-2.03-8.5-4.94c-1.52-2.14-2.07-4.61-2.06-7.25
		C12.39,66.52,12.37,58.11,12.37,49.69z"/>
	<path class="st0" d="M76.48,52.87c-2.67,0-4.95,0-7.23,0c-12.29,0.01-24.58,0.02-36.87,0.02c-1.58,0-3.11-1.24-3.25-2.56
		c-0.23-2.23,0.66-3.22,2.68-3.64c0.81-0.17,1.66-0.16,2.49-0.17c12.5-0.01,25,0,37.51,0c1.44,0,2.88,0,4.32,0
		c0.08-0.17,0.16-0.34,0.24-0.51c-0.79-0.71-1.63-1.38-2.38-2.14c-2.27-2.31-4.53-4.63-6.74-6.99c-0.93-1-0.85-2.73,0.03-3.71
		c0.97-1.08,2.64-1.4,3.79-0.66c0.51,0.33,0.99,0.73,1.43,1.16c4.43,4.41,8.85,8.83,13.27,13.25c1.91,1.92,1.92,3.6,0.02,5.51
		c-4.5,4.51-8.99,9.04-13.54,13.5c-0.95,0.93-1.99,2-3.62,1.28c-1.93-0.86-3.05-3.27-1.21-5.12c2.64-2.65,5.36-5.21,8.03-7.83
		C75.76,53.94,75.98,53.54,76.48,52.87z"/>
</g>
</svg>
