<?xml version="1.0" encoding="utf-8"?>
<!-- Generator: Adobe Illustrator 27.7.0, SVG Export Plug-In . SVG Version: 6.00 Build 0)  -->
<svg version="1.1" id="Layer_1" xmlns="http://www.w3.org/2000/svg" xmlns:xlink="http://www.w3.org/1999/xlink" x="0px" y="0px"
	 viewBox="0 0 100 100" style="enable-background:new 0 0 100 100;" xml:space="preserve">
<style type="text/css">
	.st0{fill:#0B4619;}
	.st1{fill:#F3FAF5;}
	.st2{fill:#66856F;}
</style>
<g>
	<path class="st0" d="M81.01,35.73c-0.16-0.11-0.32-0.22-0.48-0.33c-0.1,0-0.2,0-0.31,0c-2.08,0.01-4.17,0.03-6.25,0.03
		c-17.96,0-35.91,0.01-53.87,0c-0.89,0-1.43-0.14-1.41,1.29c0.11,12.46,0.06,24.92,0.07,37.38c0,3.86,3.24,7.12,7.12,7.13
		c10.17,0.03,20.33,0.02,30.5,0.03c0.41,0,0.83,0,1.12,0c0.89,2.12,1.75,4.15,2.64,6.27c-1.17,0-2.32,0-3.47,0
		c-10.46-0.01-20.92,0.12-31.37-0.1c-4.51-0.09-8.07-2.45-10.56-6.29c-1.6-2.47-2.25-5.16-2.25-8.08
		c0.02-15.71-0.06-31.41,0.05-47.12c0.03-4.95,2.42-8.77,6.62-11.44c2.38-1.52,5.04-1.98,7.78-1.99c14.17-0.03,28.33-0.12,42.5,0.07
		c2.93,0.04,5.98-0.31,8.88,0.88c4.67,1.92,7.8,5.08,8.67,10.16c0.29,1.69,0.47,3.42,0.48,5.14c0.04,14.12,0.04,28.25,0.02,42.37
		c0,1.68-0.21,3.37-0.58,5.15c-0.22-0.66-0.47-1.3-0.65-1.97c-0.75-2.69-2.05-5.02-4.3-6.73c-0.65-0.5-0.72-1.12-0.72-1.85
		c0.01-9,0.01-18,0-27c0-0.5-0.03-1-0.04-1.5C81.14,36.74,81.07,36.23,81.01,35.73z M49.89,29.25c10,0,19.99-0.02,29.99,0.03
		c1.16,0.01,1.44-0.49,1.36-1.46c-0.06-0.69-0.24-1.38-0.23-2.06c0.02-2.79-2.15-5.66-4.48-6.22c-1.89-0.45-3.85-0.71-5.79-0.76
		c-4.25-0.11-8.5-0.06-12.75-0.03c-11.02,0.07-22.04,0.15-33.05,0.27c-2.56,0.03-5.39,2.45-5.91,5.05c-0.25,1.24-0.16,2.54-0.29,3.8
		c-0.11,1.1,0.31,1.41,1.41,1.4C30.06,29.23,39.98,29.25,49.89,29.25z"/>
	<path class="st0" d="M71.85,67.25c6.48-0.34,11.98,5.32,11.66,11.86c-0.29,5.92-5.46,10.94-11.52,10.83
		c-6.28-0.12-11.12-5.03-11.16-11.52C60.79,72.61,65.41,67.28,71.85,67.25z M70.5,80.38c0,0.93-0.04,1.88,0.01,2.83
		c0.06,1.09,0.85,1.94,1.71,1.78c0.99-0.18,1.56-0.82,1.53-1.9c-0.02-0.66,0.03-1.33-0.01-1.99c-0.06-0.8,0.22-1.15,1.06-1.1
		c0.79,0.05,1.62,0.16,2.35-0.04c0.52-0.14,1.13-0.67,1.3-1.17c0.24-0.67,0.01-1.43-0.95-1.53c-0.89-0.1-1.78-0.24-2.67-0.23
		c-0.8,0.01-1.15-0.23-1.09-1.06c0.05-0.7,0.06-1.42,0-2.12c-0.07-0.77-0.33-1.47-1.24-1.57c-0.89-0.1-1.69-0.01-1.79,1.15
		c-0.1,1.09-0.21,2.17-0.31,3.25c-1.06,0.11-2.11,0.29-3.16,0.32c-0.96,0.03-1.39,0.64-1.43,1.37c-0.04,0.75,0.25,1.54,1.24,1.65
		C68.17,80.13,69.29,80.25,70.5,80.38z"/>
	<path class="st0" d="M32.15,44c2.83,0,5.1,2.07,5.1,4.65c-0.01,3.36-2.04,5.23-5.42,5.41c-2.07,0.11-5.03-2.99-4.88-5.11
		C27.15,46.04,29.11,44,32.15,44z"/>
	<path class="st0" d="M67.7,44c3.18,0,5.04,2,5.05,5.43c0.01,2.5-2.41,4.44-5.31,4.61c-2.49,0.15-5.03-2.96-4.96-5.11
		C62.56,46.36,64.81,43.64,67.7,44z"/>
	<path class="st0" d="M32.12,62.75c2.86,0,5.13,2.03,5.13,4.59c0,3.37-1.98,5.33-5.23,5.45c-2.63,0.1-5.01-2.43-4.99-5.27
		C27.06,65.26,28.88,62.52,32.12,62.75z"/>
	<path class="st0" d="M49.88,44c2.81-0.43,5.19,2.57,5.16,4.98c-0.04,2.64-2.52,4.94-4.9,5.08c-3.03,0.18-5.37-2.67-5.36-5.17
		C44.78,46.79,46.54,43.71,49.88,44z"/>
	<path class="st0" d="M49.9,62.75c2.74-0.44,5.07,2.53,5.16,4.89c0.09,2.44-2.63,5.25-5.26,5.19c-2.59-0.06-4.96-2.45-5.04-5.3
		C44.69,64.88,47.03,62.75,49.9,62.75z"/>
	<path class="st1" d="M81.01,35.73c0.06,0.51,0.13,1.01,0.19,1.52C81.14,36.74,81.07,36.23,81.01,35.73z"/>
	<path class="st2" d="M80.22,35.4c0.1,0,0.2,0,0.31,0C80.43,35.39,80.32,35.4,80.22,35.4z"/>
</g>
</svg>
